<svg width="16" height="16" viewBox="0 0 16 16" fill="none" xmlns="http://www.w3.org/2000/svg">
<circle cx="8" cy="8" r="8" fill="#2E4057"/>
<path d="M7.93119 7.50608C6.32341 6.0073 4.17061 5.08759 1.7998 5.08759V12.5815C4.17061 12.5815 6.32341 13.5012 7.93119 15C9.53898 13.508 11.6918 12.5815 14.0626 12.5815V5.08759C11.6918 5.08759 9.53898 6.0073 7.93119 7.50608ZM7.93119 5.08759C9.06209 5.08759 9.97499 4.1747 9.97499 3.0438C9.97499 1.9129 9.06209 1 7.93119 1C6.80029 1 5.8874 1.9129 5.8874 3.0438C5.8874 4.1747 6.80029 5.08759 7.93119 5.08759Z" fill="#E09F3E"/>
<path d="M8.26562 11.0273C8.26562 11.2266 8.22168 11.3896 8.13379 11.5166C8.0459 11.6436 7.92969 11.7422 7.78516 11.8125C7.64258 11.8828 7.4873 11.9316 7.31934 11.959C7.15137 11.9863 6.98633 12 6.82422 12H4.52734C4.42188 12 4.33691 11.9746 4.27246 11.9238C4.20996 11.873 4.17871 11.792 4.17871 11.6807C4.17871 11.583 4.19824 11.5098 4.2373 11.4609C4.27832 11.4102 4.3252 11.3691 4.37793 11.3379C4.43066 11.3066 4.47656 11.2705 4.51562 11.2295C4.55664 11.1865 4.57715 11.124 4.57715 11.042V8.90332C4.57715 8.81738 4.55664 8.75391 4.51562 8.71289C4.47656 8.67188 4.43066 8.63672 4.37793 8.60742C4.3252 8.57617 4.27832 8.53613 4.2373 8.4873C4.19824 8.43848 4.17871 8.36426 4.17871 8.26465C4.17871 8.15332 4.20996 8.07227 4.27246 8.02148C4.33691 7.9707 4.42188 7.94531 4.52734 7.94531H6.31738C6.50879 7.94531 6.70508 7.96582 6.90625 8.00684C7.10938 8.04785 7.29688 8.11523 7.46875 8.20898C7.64062 8.30273 7.7793 8.42773 7.88477 8.58398C7.99219 8.74023 8.0459 8.93359 8.0459 9.16406C8.0459 9.41602 7.96875 9.61426 7.81445 9.75879C7.66211 9.90137 7.48047 10.0039 7.26953 10.0664C7.43945 10.1035 7.59961 10.1621 7.75 10.2422C7.90234 10.3203 8.02637 10.4238 8.12207 10.5527C8.21777 10.6816 8.26562 10.8398 8.26562 11.0273ZM6.03613 8.53418H6.01855V9.93164H6.12402C6.34473 9.93164 6.49609 9.86816 6.57812 9.74121C6.66211 9.61426 6.7041 9.4502 6.7041 9.24902C6.7041 9.03027 6.64941 8.85645 6.54004 8.72754C6.43066 8.59863 6.2627 8.53418 6.03613 8.53418ZM6.85352 10.9658C6.85352 10.8096 6.80762 10.6807 6.71582 10.5791C6.62598 10.4756 6.5 10.4238 6.33789 10.4238H6.01855V10.9248C6.01855 11.0732 6.05469 11.1924 6.12695 11.2822C6.19922 11.3701 6.3125 11.4141 6.4668 11.4141C6.60938 11.4141 6.70898 11.3721 6.76562 11.2881C6.82422 11.2041 6.85352 11.0967 6.85352 10.9658Z" fill="#2E4057"/>
<path d="M8.27246 8.26465C8.27246 8.15332 8.30566 8.07227 8.37207 8.02148C8.43848 7.9707 8.52344 7.94531 8.62695 7.94531H10.5283C10.585 7.94531 10.6406 7.94336 10.6953 7.93945C10.75 7.93359 10.8047 7.92383 10.8594 7.91016C10.916 7.89648 10.9727 7.88281 11.0293 7.86914C11.0859 7.85547 11.1445 7.84863 11.2051 7.84863C11.3164 7.84863 11.3994 7.86914 11.4541 7.91016C11.5107 7.95117 11.5537 8.00684 11.583 8.07715C11.6143 8.14551 11.6455 8.22363 11.6768 8.31152L11.6797 8.31738V8.32031C11.6836 8.32422 11.6865 8.33301 11.6885 8.34668C11.6924 8.3584 11.6953 8.36719 11.6973 8.37305C11.7188 8.43359 11.7432 8.50684 11.7705 8.59277C11.7998 8.67676 11.8252 8.76172 11.8467 8.84766C11.8701 8.93164 11.8818 9.00488 11.8818 9.06738C11.8818 9.15723 11.8438 9.22559 11.7676 9.27246C11.6934 9.31934 11.6162 9.34277 11.5361 9.34277C11.4521 9.34277 11.3887 9.32227 11.3457 9.28125C11.3027 9.24023 11.2627 9.18555 11.2256 9.11719C11.1592 8.99219 11.1016 8.89258 11.0527 8.81836C11.0039 8.74219 10.9404 8.68652 10.8623 8.65137C10.7861 8.61621 10.6699 8.59863 10.5137 8.59863H10.1328V9.82324H10.4404C10.542 9.82324 10.6113 9.7998 10.6484 9.75293C10.6875 9.70605 10.7158 9.65234 10.7334 9.5918C10.7529 9.5293 10.7812 9.47461 10.8184 9.42773C10.8555 9.38086 10.9238 9.35742 11.0234 9.35742C11.1777 9.35742 11.2754 9.43848 11.3164 9.60059L11.4951 10.3447C11.499 10.3643 11.5029 10.3857 11.5068 10.4092C11.5107 10.4307 11.5127 10.4521 11.5127 10.4736C11.5127 10.5576 11.4834 10.627 11.4248 10.6816C11.3662 10.7344 11.2949 10.7607 11.2109 10.7607C11.1504 10.7607 11.1006 10.7461 11.0615 10.7168C11.0244 10.6875 10.9863 10.6514 10.9473 10.6084C10.8906 10.542 10.8428 10.4961 10.8037 10.4707C10.7666 10.4434 10.7246 10.4268 10.6777 10.4209C10.6328 10.415 10.5674 10.4121 10.4814 10.4121H10.1328V11.0391C10.1328 11.1348 10.1582 11.2031 10.209 11.2441C10.2598 11.2832 10.3174 11.3145 10.3818 11.3379C10.4482 11.3613 10.5068 11.3965 10.5576 11.4434C10.6084 11.4902 10.6338 11.5693 10.6338 11.6807C10.6338 11.792 10.6016 11.873 10.5371 11.9238C10.4727 11.9746 10.3877 12 10.2822 12H8.62695C8.52344 12 8.43848 11.9746 8.37207 11.9238C8.30566 11.873 8.27246 11.792 8.27246 11.6807C8.27246 11.583 8.29297 11.5098 8.33398 11.4609C8.37695 11.4102 8.42578 11.3691 8.48047 11.3379C8.53711 11.3047 8.58594 11.2676 8.62695 11.2266C8.66992 11.1855 8.69141 11.124 8.69141 11.042V8.90332C8.69141 8.82129 8.66992 8.75977 8.62695 8.71875C8.58594 8.67578 8.53711 8.63867 8.48047 8.60742C8.42578 8.57617 8.37695 8.53613 8.33398 8.4873C8.29297 8.43848 8.27246 8.36426 8.27246 8.26465Z" fill="#2E4057"/>
</svg>
